{"title":"The Final Girls (2015) x264 720p AAC ITA SUB ITA ENG","uid":12716153,"size":3583017497,"categoryP":"video","categoryS":"hd___movies","magnet":"?xt=urn:btih:cac408f3a31ab2dfdfd1937081a709e3bf186aa4&amp;dn=The+Final+Girls+%282015%29+x264+720p+AAC+ITA+SUB+ITA+ENG&amp;tr=udp%3A%2F%2Ftracker.leechers-paradise.org%3A6969&amp;tr=udp%3A%2F%2Fzer0day.ch%3A1337&amp;tr=udp%3A%2F%2Fopen.demonii.com%3A1337&amp;tr=udp%3A%2F%2Ftracker.coppersurfer.tk%3A6969&amp;tr=udp%3A%2F%2Fexodus.desync.com%3A6969","seeders":0,"leechers":1,"uploader":"xtron197777","files":1,"time":1446933058,"description":"The Final Girls (2015)\r\n \nhttp://i.imgur.com/6k2PeFw.jpg?1\r\n\r\n-: Cast :-\r\n\r\nTaissa Farmiga: Max Cartwright\r\nMalin Åkerman: Amanda Cartwright\r\nAlexander Ludwig: Chris\r\nNina Dobrev: Vicki\r\nAlia Shawkat: Gertie\r\nThomas Middleditch: Duncan\r\nAdam Devine: Kurt\r\nAngela Trimbur: Tina\r\nChloe Bridges: Paula\r\nTory N. Thompson: Blake\r\nReginald R. Robinson: escursionista\r\nLauren Elise Gros: Mimi\r\nDan Norris: Billy Murphy\r\n\r\n-: Trama :-\r\n\r\nLa liceale Max e i suoi amici vengono misteriosamente trasportati all'interno di un film horror degli anni Ottanta di cui è protagonista la madre della ragazza, una celebre scream queen. Intrappolata all'interno della pellicola, Max ritrova la madre, che invece è morta nella realtà, e insieme agli amici deve respingere i pericoli prima di poter far finalmente ritorno a casa.\r\n\r\n-: Info :-\r\nGeneral \r\nFormat profile : Base Media \r\nCodec ID : isom \r\nFile size : 3.34 GiB \r\nDuration : 1h 31mn \r\nOverall bit rate mode : Variable \r\nOverall bit rate : 5 231 Kbps \r\nEncoded date : UTC 2015-11-07 19:13:28 \r\nTagged date : UTC 2015-11-07 19:13:28 \r\nWriting application : Lavf57.3.100 \r\n\r\nVideo \r\nID : 1 \r\nFormat : AVC \r\nFormat/Info : Advanced Video Codec \r\nFormat profile :    \r\nFormat settings, CABAC : Yes \r\nFormat settings, ReFrames : 4 frames \r\nCodec ID : avc1 \r\nCodec ID/Info : Advanced Video Coding \r\nDuration : 1h 31mn \r\nBit rate : 5 096 Kbps \r\nWidth : 1 280 pixels \r\nHeight : 536 pixels \r\nDisplay aspect ratio : 2.40:1 \r\nFrame rate mode : Variable \r\nFrame rate : 23.976 fps \r\nMinimum frame rate : 23.564 fps \r\nMaximum frame rate : 24.390 fps \r\nColor space : YUV \r\nChroma subsampling : 4:2:0 \r\nBit depth : 8 bits \r\nScan type : Progressive \r\nBits/(Pixel*Frame) : 0.310 \r\nStream size : 3.25 GiB (97%) \r\nWriting library : x264 core 146 r2538 121396c \r\nEncoding settings : cabac=1 / ref=2 / deblock=1:-2:-1 / analyse=0x3:0x113 / me=hex / subme=6 / psy=1 / psy_rd=1.00:0.00 / mixed_ref=1 / me_range=16 / chroma_me=1 / trellis=1 / 8x8dct=1 / cqm=0 / deadzone=21,11 / fast_pskip=1 / chroma_qp_offset=-2 / threads=12 / lookahead_threads=2 / sliced_threads=0 / nr=0 / decimate=0 / interlaced=0 / bluray_compat=0 / constrained_intra=0 / bframes=3 / b_pyramid=2 / b_adapt=1 / b_bias=0 / direct=1 / weightb=1 / open_gop=0 / weightp=1 / keyint=240 / keyint_min=24 / scenecut=40 / intra_refresh=0 / rc_lookahead=30 / rc=2pass / mbtree=1 / bitrate=5096 / ratetol=1.0 / qcomp=0.60 / qpmin=0 / qpmax=69 / qpstep=4 / cplxblur=20.0 / qblur=0.5 / vbv_maxrate=50000 / vbv_bufsize=50000 / nal_hrd=none / filler=0 / ip_ratio=1.40 / aq=1:1.00 \r\nEncoded date : UTC 2015-11-07 19:13:28 \r\nTagged date : UTC 2015-11-07 19:13:28 \r\n\r\nAudio \r\nID : 2 \r\nFormat : AAC \r\nFormat/Info : Advanced Audio Codec \r\nFormat profile : LC \r\nCodec ID : 40 \r\nDuration : 1h 31mn \r\nBit rate mode : Constant \r\nBit rate : 128 Kbps \r\nChannel(s) : 2 channels \r\nChannel positions : Front: L R \r\nSampling rate : 48.0 KHz \r\nCompression mode : Lossy \r\nStream size : 83.6 MiB (2%) \r\nLanguage : Italian \r\nEncoded date : UTC 2015-11-07 19:13:28 \r\nTagged date : UTC 2015-11-07 19:13:28 \r\n\r\nText #1 \r\nID : 3 \r\nFormat : Timed Text \r\nMuxing mode : sbtl \r\nCodec ID : tx3g \r\nDuration : 1h 22mn \r\nBit rate mode : Variable \r\nBit rate : 0 bps \r\nStream size : 148 Bytes (0%) \r\nLanguage : Italian \r\nEncoded date : UTC 2015-11-07 19:13:28 \r\nTagged date : UTC 2015-11-07 19:13:28 \r\n\r\nText #2 \r\nID : 4 \r\nFormat : Timed Text \r\nMuxing mode : sbtl \r\nCodec ID : tx3g \r\nDuration : 1h 26mn \r\nBit rate mode : Variable \r\nBit rate : 60 bps \r\nStream size : 37.9 KiB (0%) \r\nLanguage : Italian \r\nEncoded date : UTC 2015-11-07 19:13:28 \r\nTagged date : UTC 2015-11-07 19:13:28 \r\n\r\nText #3 \r\nID : 5 \r\nFormat : Timed Text \r\nMuxing mode : sbtl \r\nCodec ID : tx3g \r\nDuration : 1h 26mn \r\nBit rate mode : Variable \r\nBit rate : 64 bps \r\nStream size : 40.1 KiB (0%) \r\nLanguage : English \r\nEncoded date : UTC 2015-11-07 19:13:28 \r\nTagged date : UTC 2015-11-07 19:13:28 \r\n\r\nText #4 \r\nID : 6 \r\nFormat : Timed Text \r\nMuxing mode : sbtl \r\nCodec ID : tx3g \r\nDuration : 1h 26mn \r\nBit rate mode : Variable \r\nBit rate : 76 bps \r\nStream size : 47.8 KiB (0%) \r\nLanguage : English \r\nEncoded date : UTC 2015-11-07 19:13:28 \r\nTagged date : UTC 2015-11-07 19:13:28","torrent":{"xt":"urn:btih:cac408f3a31ab2dfdfd1937081a709e3bf186aa4","amp;dn":"The+Final+Girls+%282015%29+x264+720p+AAC+ITA+SUB+ITA+ENG","amp;tr":["udp%3A%2F%2Ftracker.leechers-paradise.org%3A6969","udp%3A%2F%2Fzer0day.ch%3A1337","udp%3A%2F%2Fopen.demonii.com%3A1337","udp%3A%2F%2Ftracker.coppersurfer.tk%3A6969","udp%3A%2F%2Fexodus.desync.com%3A6969"],"infoHash":"cac408f3a31ab2dfdfd1937081a709e3bf186aa4","infoHashBuffer":{"type":"Buffer","data":[202,196,8,243,163,26,178,223,223,209,147,112,129,167,9,227,191,24,106,164]},"announce":[],"urlList":[]}}